<svg xmlns:inkscape="http://www.inkscape.org/namespaces/inkscape" xmlns:sodipodi="http://sodipodi.sourceforge.net/DTD/sodipodi-0.dtd" xmlns="http://www.w3.org/2000/svg" xmlns:svg="http://www.w3.org/2000/svg" id="svg" version="1.1" sodipodi:docname="resevoir-simplified.svg" inkscape:version="1.1 (c4e8f9e, 2021-05-24)" viewBox="171.93 6.74 47.19 47.19">
  <defs id="defs14"/>
  <sodipodi:namedview id="namedview12" pagecolor="#ffffff" bordercolor="#666666" borderopacity="1.0" inkscape:pageshadow="2" inkscape:pageopacity="0.0" inkscape:pagecheckerboard="0" showgrid="false" inkscape:zoom="2.7775" inkscape:cx="200" inkscape:cy="30.063006" inkscape:window-width="1280" inkscape:window-height="755" inkscape:window-x="0" inkscape:window-y="23" inkscape:window-maximized="0" inkscape:current-layer="svgg"/>
  <g id="svgg">
    <path id="path0" d="m 171.92893,14.607 v 7.865 h 5.992 c 5.493,0 5.993,0.125 5.993,1.498 0,0.999 0.499,1.498 1.498,1.498 0.999,0 1.498,0.5 1.498,1.498 0,1.099 0.499,1.498 1.873,1.498 1.85,0 1.872,0.075 1.872,6.367 0,5.868 0.118,6.368 1.498,6.368 1.249,0 1.499,0.499 1.499,2.996 0,2.497 0.249,2.996 1.498,2.996 1.276,0 1.498,0.499 1.498,3.371 v 3.371 h 11.236 11.236 v -8.24 -8.24 h -6.367 c -5.868,0 -6.367,-0.117 -6.367,-1.498 0,-0.999 -0.5,-1.498 -1.498,-1.498 -0.999,0 -1.499,-0.499 -1.499,-1.498 0,-0.999 -0.499,-1.498 -1.498,-1.498 -1.38,0 -1.498,-0.5 -1.498,-6.367 0,-5.868 -0.117,-6.367 -1.498,-6.367 -1.248,0 -1.498,-0.5 -1.498,-2.997 0,-2.696 -0.187,-2.996 -1.873,-2.996 -1.685,0 -1.872,-0.3 -1.872,-2.996 V 6.742 h -10.862 -10.861 v 7.865" stroke="none" fill="#000000" fill-rule="evenodd" sodipodi:nodetypes="ccsssssssssscccccsssssssssscccc"/>
  </g>
</svg>