<svg enable-background="new 0 0 541.8 287" viewBox="0 0 541.8 287" xmlns="http://www.w3.org/2000/svg" xmlns:xlink="http://www.w3.org/1999/xlink"><image height="1767" overflow="visible" transform="matrix(-.00000009 .0659 -.0659 -.00000009 127.8353 8.7323)" width="4075" xlink:href="43CDC60737A6F29E.png"/><g opacity=".54"><g fill="none" stroke="#000" stroke-miterlimit="10" stroke-width=".25"><path d="m98 184.9h1.5"/><path d="m102.5 184.9h399.4" stroke-dasharray="2.9919 2.9919"/><path d="m503.4 184.9h1.5"/></g><path d="m98.1 186.7c-1 0-1.9-.8-1.9-1.9s.8-1.9 1.9-1.9 1.9.8 1.9 1.9-.9 1.9-1.9 1.9z"/></g><g opacity=".54"><g fill="none" stroke="#000" stroke-miterlimit="10" stroke-width=".25"><path d="m121.7 63.2h1.5"/><path d="m126 63.2h26.2" stroke-dasharray="2.756 2.756"/><path d="m153.6 63.2h1.5"/></g><path d="m121.8 65.1c-1 0-1.9-.8-1.9-1.9s.8-1.9 1.9-1.9 1.9.8 1.9 1.9-.8 1.9-1.9 1.9z"/></g><g opacity=".54"><g fill="none" stroke="#000" stroke-miterlimit="10" stroke-width=".25"><path d="m76 100.1h1.5"/><path d="m80.5 100.1h361.4" stroke-dasharray="3.0237 3.0237"/><path d="m443.4 100.1h1.5"/></g><path d="m76.1 102c-1 0-1.9-.8-1.9-1.9s.8-1.9 1.9-1.9 1.9.8 1.9 1.9-.9 1.9-1.9 1.9z"/></g><g fill="none" opacity=".54" stroke="#000" stroke-miterlimit="10" stroke-width=".25"><path d="m79.5 82.9h1.5"/><path d="m84.1 82.9h372.9" stroke-dasharray="3.02 3.02"/><path d="m458.5 82.9h1.5"/></g><g opacity=".54"><g fill="none" stroke="#000" stroke-miterlimit="10" stroke-width=".25"><path d="m87 157.9h1.5"/><path d="m91.5 157.9h395.9" stroke-dasharray="3.0102 3.0102"/><path d="m488.9 157.9h1.5"/></g><path d="m87.1 159.8c-1 0-1.9-.8-1.9-1.9s.8-1.9 1.9-1.9 1.9.8 1.9 1.9-.9 1.9-1.9 1.9z"/></g><g opacity=".54"><g fill="none" stroke="#000" stroke-miterlimit="10" stroke-width=".25"><path d="m79.9 198.7h1.5"/><path d="m84.4 198.7h236.1" stroke-dasharray="2.9708 2.9708"/><path d="m322 198.7h1.5"/></g><path d="m80 200.6c-1 0-1.9-.8-1.9-1.9s.8-1.9 1.9-1.9 1.9.8 1.9 1.9-.9 1.9-1.9 1.9z"/></g><g opacity=".54"><g fill="none" stroke="#000" stroke-miterlimit="10" stroke-width=".25"><path d="m76 230.2h1.5"/><path d="m80.5 230.2h346.2" stroke-dasharray="2.9974 2.9974"/><path d="m428.2 230.2h1.5"/></g><path d="m76.1 232.1c-1 0-1.9-.8-1.9-1.9s.8-1.9 1.9-1.9 1.9.8 1.9 1.9-.9 1.9-1.9 1.9z"/></g><g fill="none"><path d="m156.8 263.1h364.8" opacity=".55" stroke="#000" stroke-miterlimit="10" stroke-width=".5"/><path d="m156.8 260.2v5.7" opacity=".55" stroke="#000" stroke-miterlimit="10" stroke-width=".5"/><path d="m187.2 260.2v5.7" opacity=".55" stroke="#000" stroke-miterlimit="10" stroke-width=".5"/><path d="m217.6 260.2v5.7" opacity=".55" stroke="#000" stroke-miterlimit="10" stroke-width=".5"/><path d="m248 260.2v5.7" opacity=".55" stroke="#000" stroke-miterlimit="10" stroke-width=".5"/><path d="m278.4 260.2v5.7" opacity=".55" stroke="#000" stroke-miterlimit="10" stroke-width=".5"/><path d="m308.8 260.2v5.7" opacity=".55" stroke="#000" stroke-miterlimit="10" stroke-width=".5"/><path d="m339.2 260.2v5.7" opacity=".55" stroke="#000" stroke-miterlimit="10" stroke-width=".5"/><path d="m369.6 260.2v5.7" opacity=".55" stroke="#000" stroke-miterlimit="10" stroke-width=".5"/><path d="m400 260.2v5.7" opacity=".55" stroke="#000" stroke-miterlimit="10" stroke-width=".5"/><path d="m430.4 260.2v5.7" opacity=".55" stroke="#000" stroke-miterlimit="10" stroke-width=".5"/><path d="m460.8 260.2v5.7" opacity=".55" stroke="#000" stroke-miterlimit="10" stroke-width=".5"/><path d="m491.2 260.2v5.7" opacity=".55" stroke="#000" stroke-miterlimit="10" stroke-width=".5"/><path d="m521.6 260.2v5.7" opacity=".55" stroke="#000" stroke-miterlimit="10" stroke-width=".5"/><path d="m500.4 269.2h20.2v17.8h-20.2z"/></g><text font-family="'SabonNextLTPro-ExtraBold'" font-size="10" opacity=".55" transform="translate(500.4009 276.703)">19</text><path d="m470.2 269.2h20.2v17.8h-20.2z" fill="none"/><text font-family="'SabonNextLTPro-ExtraBold'" font-size="10" opacity=".55" transform="translate(470.2173 276.703)">18</text><path d="m440 269.2h20.2v17.8h-20.2z" fill="none"/><text font-family="'SabonNextLTPro-ExtraBold'" font-size="10" opacity=".55" transform="translate(440.0338 276.703)">17</text><path d="m409.9 269.2h20.2v17.8h-20.2z" fill="none"/><text font-family="'SabonNextLTPro-ExtraBold'" font-size="10" opacity=".55" transform="translate(409.8502 276.703)">16</text><path d="m379.7 269.2h20.2v17.8h-20.2z" fill="none"/><text font-family="'SabonNextLTPro-ExtraBold'" font-size="10" opacity=".55" transform="translate(379.6666 276.703)">15</text><path d="m349.5 269.2h20.2v17.8h-20.2z" fill="none"/><text font-family="'SabonNextLTPro-ExtraBold'" font-size="10" opacity=".55" transform="translate(349.483 276.703)">14</text><path d="m319.3 269.2h20.2v17.8h-20.2z" fill="none"/><text font-family="'SabonNextLTPro-ExtraBold'" font-size="10" opacity=".55" transform="translate(319.2994 276.703)">13</text><path d="m289.1 269.2h20.2v17.8h-20.2z" fill="none"/><text font-family="'SabonNextLTPro-ExtraBold'" font-size="10" opacity=".55" transform="translate(289.1158 276.703)">12</text><path d="m258.9 269.2h20.2v17.8h-20.2z" fill="none"/><text font-family="'SabonNextLTPro-ExtraBold'" font-size="10" opacity=".55" transform="translate(258.9322 276.703)">11</text><path d="m228.8 269.2h20.2v17.8h-20.2z" fill="none"/><text font-family="'SabonNextLTPro-ExtraBold'" font-size="10" opacity=".55" transform="translate(228.7486 276.703)">10</text><path d="m198.6 269.2h20.2v17.8h-20.2z" fill="none"/><text font-family="'SabonNextLTPro-ExtraBold'" font-size="10" opacity=".55" transform="translate(198.5645 276.703)">09</text><path d="m168.4 269.2h20.2v17.8h-20.2z" fill="none"/><text font-family="'SabonNextLTPro-ExtraBold'" font-size="10" opacity=".55" transform="translate(168.3809 276.703)">08</text><path d="m384.2 198.7h-60.7" style="opacity:.6;fill:none;stroke:#000;stroke-width:5;stroke-linecap:round;stroke-miterlimit:10"/><path d="m321.5 63.5h-25.2" style="opacity:.6;fill:none;stroke:#000;stroke-width:5;stroke-linecap:round;stroke-miterlimit:10"/><path d="m429.8 73.6h-10" fill="none" stroke="#e3a15d" stroke-linecap="round" stroke-miterlimit="10" stroke-width="5"/><path d="m460.2 99.7h-11.9" fill="none" stroke="#e3a15d" stroke-linecap="round" stroke-miterlimit="10" stroke-width="5"/><path d="m472.9 82.4h-11.9" fill="none" stroke="#e3a15d" stroke-linecap="round" stroke-miterlimit="10" stroke-width="5"/><path d="m490.8 45.5h-9.8" fill="none" stroke="#e3a15d" stroke-linecap="round" stroke-miterlimit="10" stroke-width="5"/><path d="m259.5 63.5h-102.7" style="opacity:.6;fill:none;stroke:#000;stroke-width:5;stroke-linecap:round;stroke-miterlimit:10"/><path d="m503.9 158.2h-13.5" fill="none" stroke="#e3a15d" stroke-linecap="round" stroke-miterlimit="10" stroke-width="5"/><g opacity=".54"><g fill="none" stroke="#000" stroke-miterlimit="10" stroke-width=".25"><path d="m71.4 69.4.8 1.3"/><path d="m73.5 72.9 4.6 7.6" stroke-dasharray="2.5414 2.5414"/><path d="m78.8 81.6.7 1.3"/></g><path d="m69.9 70.4c-.5-.9-.2-2.1.6-2.6s2.1-.2 2.6.6.2 2.1-.6 2.6-2.1.3-2.6-.6z"/></g><path d="m418.3 63.5h-6.4" style="opacity:.6;fill:none;stroke:#000;stroke-width:5;stroke-linecap:round;stroke-miterlimit:10"/><g fill="none" opacity=".54" stroke="#000" stroke-miterlimit="10" stroke-width=".25"><path d="m132.9 73.2h1.5"/><path d="m137.5 73.2h277" stroke-dasharray="3.0277 3.0277"/><path d="m416 73.2h1.5"/></g><g opacity=".54"><g fill="none" stroke="#000" stroke-miterlimit="10" stroke-width=".25"><path d="m119.2 61.4 1.1.9"/><path d="m122.6 64.1 8 6.3" stroke-dasharray="2.9061 2.9061"/><path d="m131.8 71.3 1.1.9"/></g><path d="m118.1 62.9c-.8-.6-1-1.8-.3-2.6s1.8-1 2.6-.3 1 1.8.3 2.6-1.8 1-2.6.3z"/></g><path d="m440.8 229.6h-10" fill="none" stroke="#e3a15d" stroke-linecap="round" stroke-miterlimit="10" stroke-width="5"/><path d="m448.3 184.5h-6.4" fill="none" stroke="#726d6e" stroke-linecap="round" stroke-miterlimit="10" stroke-width="5"/><path d="m478 51.5h-4.1" style="opacity:.6;fill:none;stroke:#000;stroke-width:5;stroke-linecap:round;stroke-miterlimit:10"/><g fill="none" opacity=".54" stroke="#000" stroke-miterlimit="10" stroke-width=".25"><path d="m132.9 52.2h1.5"/><path d="m137.5 52.2 330.6-.7" stroke-dasharray="3.0196 3.0196"/><path d="m469.6 51.5h1.5"/></g><g opacity=".54"><g fill="none" stroke="#000" stroke-miterlimit="10" stroke-width=".25"><path d="m124.3 57.9 1.3-.8"/><path d="m127.6 55.7 3.1-2" stroke-dasharray="2.4406 2.4406"/><path d="m131.7 53.1 1.2-.9"/></g><path d="m125.4 59.4c-.9.6-2 .3-2.6-.5-.6-.9-.3-2 .5-2.6s2-.3 2.6.5c.6.9.4 2-.5 2.6z"/></g><path d="m511.3 184.5h-6.4" fill="none" stroke="#726d6e" stroke-linecap="round" stroke-miterlimit="10" stroke-width="5"/><path d="m293.5 57.5h-30.3" style="opacity:.6;fill:none;stroke:#000;stroke-width:5;stroke-linecap:round;stroke-miterlimit:10"/><g fill="none" opacity=".54" stroke="#000" stroke-miterlimit="10" stroke-width=".25"><path d="m323.6 63.5h1.5"/><path d="m328.2 63.5h78.2" stroke-dasharray="3.0662 3.0662"/><path d="m407.9 63.5h1.5"/></g><path d="m320.2 204.2h66.6v11.3h-66.6z" fill="none"/><text font-family="'SabonLTStd-Roman'" font-size="6" opacity=".6" transform="translate(331.1324 208.8007)">UWC Costa Rica</text><path d="m403.2 234.2h66.6v11.3h-66.6z" fill="none"/><text font-family="'SabonLTStd-Roman'" font-size="6" opacity=".6" transform="translate(432.1285 238.8007)">4th</text><path d="m412.2 189.2h66.6v11.3h-66.6z" fill="none"/><text font-family="'SabonLTStd-Roman'" font-size="6" opacity=".6" transform="translate(434.9703 193.8007)">Amplify</text><path d="m475.2 189.2h66.6v11.3h-66.6z" fill="none"/><text font-family="'SabonLTStd-Roman'" font-size="6" opacity=".6" transform="translate(488.8023 193.8007)">Recurse Center</text><path d="m465.2 163.2h66.6v11.3h-66.6z" fill="none"/><text font-family="'SabonLTStd-Roman'" font-size="6" opacity=".6" transform="translate(494.1285 167.8007)">8th</text><path d="m365.2 163.2h66.6v11.3h-66.6z" fill="none"/><text font-family="'SabonLTStd-Roman'" font-size="6" opacity=".6" transform="translate(385.1255 167.8007)">1st &amp; 2nd semester at Minerva</text><path d="m421.2 105.2h66.6v11.3h-66.6z" fill="none"/><text font-family="'SabonLTStd-Roman'" font-size="6" opacity=".6" transform="translate(450.1285 109.8007)">5th</text><path d="m433.2 87.2h66.6v11.3h-66.6z" fill="none"/><text font-family="'SabonLTStd-Roman'" font-size="6" opacity=".6" transform="translate(462.1285 91.8007)">6th</text><path d="m392.2 77.2h66.6v11.3h-66.6z" fill="none"/><text font-family="'SabonLTStd-Roman'" font-size="6" opacity=".6" transform="translate(420.9605 81.8007)">3rd</text><path d="m244.2 61.2h66.6v11.3h-66.6z" fill="none"/><text font-family="'SabonLTStd-Roman'" font-size="6" opacity=".6" transform="translate(272.7994 65.8007)">ØU</text><path d="m266.2 67.2h85.6v11.3h-85.6z" fill="none"/><text font-family="'SabonLTStd-Roman'" font-size="6" opacity=".6" transform="translate(293.4683 71.8007)">High School</text><path d="m411.8 158.2h-27.6" fill="none" stroke="#e3a15d" stroke-linecap="round" stroke-miterlimit="10" stroke-width="5"/><path d="m453.2 36.2h66.6v11.3h-66.6z" fill="none"/><text font-family="'SabonLTStd-Roman'" font-size="6" opacity=".6" transform="translate(482.1285 40.8007)">7th</text><path d="m443.2 56.2h66.6v11.3h-66.6z" fill="none"/><text font-family="'SabonLTStd-Roman'" font-size="6" opacity=".6" transform="translate(464.9625 60.8007)">DC Labs</text><path d="m165.2 67.2h85.6v11.3h-85.6z" fill="none"/><text font-family="'SabonLTStd-Roman'" font-size="6" opacity=".6" transform="translate(197.4683 71.8007)">Aalborg</text><path d="m369.2 67.2h85.6v11.3h-85.6z" fill="none"/><text font-family="'SabonLTStd-Roman'" font-size="6" opacity=".6" transform="translate(406.3072 71.8007)">HIA</text></svg>