<?xml version="1.0" standalone="no"?>
<!DOCTYPE svg PUBLIC "-//W3C//DTD SVG 20010904//EN"
  "http://www.w3.org/TR/2001/REC-SVG-20010904/DTD/svg10.dtd">
<svg width="200" height="106">
<g style="fill:black;fill-opacity:1;stroke:none;stroke-width:1;stroke-opacity:1;fill-rule:nonzero;" transform="scale(1.00037,1)">
<g style="" transform="matrix(-9e-08 0.0659 -0.0659 -9e-08 127.835 8.7323)">
  <image x="0" y="0" width="4075" height="1767" href="43CDC60737A6F29E.png"/>
</g>
<g style="opacity .54 " transform="matrix(-9e-08 0.0659 -0.0659 -9e-08 127.835 8.7323)">
<g style="fill:none;stroke:#000;stroke-miterlimit:10;stroke-width:0.25;" transform="matrix(-9e-08 0.0659 -0.0659 -9e-08 127.835 8.7323)">
<g style="" transform="matrix(-9e-08 0.0659 -0.0659 -9e-08 127.835 8.7323)">
  <path d="m98 184.9h1.5"/>
</g>
<g style="stroke-dasharray:2.9919 2.9919 ;" transform="matrix(-9e-08 0.0659 -0.0659 -9e-08 127.835 8.7323)">
  <path d="m102.5 184.9h399.4"/>
</g>
<g style="" transform="matrix(-9e-08 0.0659 -0.0659 -9e-08 127.835 8.7323)">
  <path d="m503.4 184.9h1.5"/>
</g>
</g>
<g style="" transform="matrix(-9e-08 0.0659 -0.0659 -9e-08 127.835 8.7323)">
  <path d="m98.1 186.7c-1 0-1.9-.8-1.9-1.9s.8-1.9 1.9-1.9 1.9.8 1.9 1.9-.9 1.9-1.9 1.9z"/>
</g>
</g>
<g style="opacity .54 " transform="matrix(-9e-08 0.0659 -0.0659 -9e-08 127.835 8.7323)">
<g style="fill:none;stroke:#000;stroke-miterlimit:10;stroke-width:0.25;" transform="matrix(-9e-08 0.0659 -0.0659 -9e-08 127.835 8.7323)">
<g style="" transform="matrix(-9e-08 0.0659 -0.0659 -9e-08 127.835 8.7323)">
  <path d="m121.7 63.2h1.5"/>
</g>
<g style="stroke-dasharray:2.756 2.756 ;" transform="matrix(-9e-08 0.0659 -0.0659 -9e-08 127.835 8.7323)">
  <path d="m126 63.2h26.2"/>
</g>
<g style="" transform="matrix(-9e-08 0.0659 -0.0659 -9e-08 127.835 8.7323)">
  <path d="m153.6 63.2h1.5"/>
</g>
</g>
<g style="" transform="matrix(-9e-08 0.0659 -0.0659 -9e-08 127.835 8.7323)">
  <path d="m121.8 65.1c-1 0-1.9-.8-1.9-1.9s.8-1.9 1.9-1.9 1.9.8 1.9 1.9-.8 1.9-1.9 1.9z"/>
</g>
</g>
<g style="opacity .54 " transform="matrix(-9e-08 0.0659 -0.0659 -9e-08 127.835 8.7323)">
<g style="fill:none;stroke:#000;stroke-miterlimit:10;stroke-width:0.25;" transform="matrix(-9e-08 0.0659 -0.0659 -9e-08 127.835 8.7323)">
<g style="" transform="matrix(-9e-08 0.0659 -0.0659 -9e-08 127.835 8.7323)">
  <path d="m76 100.1h1.5"/>
</g>
<g style="stroke-dasharray:3.0237 3.0237 ;" transform="matrix(-9e-08 0.0659 -0.0659 -9e-08 127.835 8.7323)">
  <path d="m80.5 100.1h361.4"/>
</g>
<g style="" transform="matrix(-9e-08 0.0659 -0.0659 -9e-08 127.835 8.7323)">
  <path d="m443.4 100.1h1.5"/>
</g>
</g>
<g style="" transform="matrix(-9e-08 0.0659 -0.0659 -9e-08 127.835 8.7323)">
  <path d="m76.1 102c-1 0-1.9-.8-1.9-1.9s.8-1.9 1.9-1.9 1.9.8 1.9 1.9-.9 1.9-1.9 1.9z"/>
</g>
</g>
<g style="fill:none;opacity .54 stroke:#000;stroke-miterlimit:10;stroke-width:0.25;" transform="matrix(-9e-08 0.0659 -0.0659 -9e-08 127.835 8.7323)">
<g style="" transform="matrix(-9e-08 0.0659 -0.0659 -9e-08 127.835 8.7323)">
  <path d="m79.5 82.9h1.5"/>
</g>
<g style="stroke-dasharray:3.02 3.02 ;" transform="matrix(-9e-08 0.0659 -0.0659 -9e-08 127.835 8.7323)">
  <path d="m84.1 82.9h372.9"/>
</g>
<g style="" transform="matrix(-9e-08 0.0659 -0.0659 -9e-08 127.835 8.7323)">
  <path d="m458.5 82.9h1.5"/>
</g>
</g>
<g style="opacity .54 " transform="matrix(-9e-08 0.0659 -0.0659 -9e-08 127.835 8.7323)">
<g style="fill:none;stroke:#000;stroke-miterlimit:10;stroke-width:0.25;" transform="matrix(-9e-08 0.0659 -0.0659 -9e-08 127.835 8.7323)">
<g style="" transform="matrix(-9e-08 0.0659 -0.0659 -9e-08 127.835 8.7323)">
  <path d="m87 157.9h1.5"/>
</g>
<g style="stroke-dasharray:3.0102 3.0102 ;" transform="matrix(-9e-08 0.0659 -0.0659 -9e-08 127.835 8.7323)">
  <path d="m91.5 157.9h395.9"/>
</g>
<g style="" transform="matrix(-9e-08 0.0659 -0.0659 -9e-08 127.835 8.7323)">
  <path d="m488.9 157.9h1.5"/>
</g>
</g>
<g style="" transform="matrix(-9e-08 0.0659 -0.0659 -9e-08 127.835 8.7323)">
  <path d="m87.1 159.8c-1 0-1.9-.8-1.9-1.9s.8-1.9 1.9-1.9 1.9.8 1.9 1.9-.9 1.9-1.9 1.9z"/>
</g>
</g>
<g style="opacity .54 " transform="matrix(-9e-08 0.0659 -0.0659 -9e-08 127.835 8.7323)">
<g style="fill:none;stroke:#000;stroke-miterlimit:10;stroke-width:0.25;" transform="matrix(-9e-08 0.0659 -0.0659 -9e-08 127.835 8.7323)">
<g style="" transform="matrix(-9e-08 0.0659 -0.0659 -9e-08 127.835 8.7323)">
  <path d="m79.9 198.7h1.5"/>
</g>
<g style="stroke-dasharray:2.9708 2.9708 ;" transform="matrix(-9e-08 0.0659 -0.0659 -9e-08 127.835 8.7323)">
  <path d="m84.4 198.7h236.1"/>
</g>
<g style="" transform="matrix(-9e-08 0.0659 -0.0659 -9e-08 127.835 8.7323)">
  <path d="m322 198.7h1.5"/>
</g>
</g>
<g style="" transform="matrix(-9e-08 0.0659 -0.0659 -9e-08 127.835 8.7323)">
  <path d="m80 200.6c-1 0-1.9-.8-1.9-1.9s.8-1.9 1.9-1.9 1.9.8 1.9 1.9-.9 1.9-1.9 1.9z"/>
</g>
</g>
<g style="opacity .54 " transform="matrix(-9e-08 0.0659 -0.0659 -9e-08 127.835 8.7323)">
<g style="fill:none;stroke:#000;stroke-miterlimit:10;stroke-width:0.25;" transform="matrix(-9e-08 0.0659 -0.0659 -9e-08 127.835 8.7323)">
<g style="" transform="matrix(-9e-08 0.0659 -0.0659 -9e-08 127.835 8.7323)">
  <path d="m76 230.2h1.5"/>
</g>
<g style="stroke-dasharray:2.9974 2.9974 ;" transform="matrix(-9e-08 0.0659 -0.0659 -9e-08 127.835 8.7323)">
  <path d="m80.5 230.2h346.2"/>
</g>
<g style="" transform="matrix(-9e-08 0.0659 -0.0659 -9e-08 127.835 8.7323)">
  <path d="m428.2 230.2h1.5"/>
</g>
</g>
<g style="" transform="matrix(-9e-08 0.0659 -0.0659 -9e-08 127.835 8.7323)">
  <path d="m76.1 232.1c-1 0-1.9-.8-1.9-1.9s.8-1.9 1.9-1.9 1.9.8 1.9 1.9-.9 1.9-1.9 1.9z"/>
</g>
</g>
<g style="fill:none;" transform="matrix(-9e-08 0.0659 -0.0659 -9e-08 127.835 8.7323)">
<g style="opacity .55 stroke:#000;stroke-miterlimit:10;stroke-width:0.5;" transform="matrix(-9e-08 0.0659 -0.0659 -9e-08 127.835 8.7323)">
  <path d="m156.8 263.1h364.8"/>
</g>
<g style="opacity .55 stroke:#000;stroke-miterlimit:10;stroke-width:0.5;" transform="matrix(-9e-08 0.0659 -0.0659 -9e-08 127.835 8.7323)">
  <path d="m156.8 260.2v5.7"/>
</g>
<g style="opacity .55 stroke:#000;stroke-miterlimit:10;stroke-width:0.5;" transform="matrix(-9e-08 0.0659 -0.0659 -9e-08 127.835 8.7323)">
  <path d="m187.2 260.2v5.7"/>
</g>
<g style="opacity .55 stroke:#000;stroke-miterlimit:10;stroke-width:0.5;" transform="matrix(-9e-08 0.0659 -0.0659 -9e-08 127.835 8.7323)">
  <path d="m217.6 260.2v5.7"/>
</g>
<g style="opacity .55 stroke:#000;stroke-miterlimit:10;stroke-width:0.5;" transform="matrix(-9e-08 0.0659 -0.0659 -9e-08 127.835 8.7323)">
  <path d="m248 260.2v5.7"/>
</g>
<g style="opacity .55 stroke:#000;stroke-miterlimit:10;stroke-width:0.5;" transform="matrix(-9e-08 0.0659 -0.0659 -9e-08 127.835 8.7323)">
  <path d="m278.4 260.2v5.7"/>
</g>
<g style="opacity .55 stroke:#000;stroke-miterlimit:10;stroke-width:0.5;" transform="matrix(-9e-08 0.0659 -0.0659 -9e-08 127.835 8.7323)">
  <path d="m308.8 260.2v5.7"/>
</g>
<g style="opacity .55 stroke:#000;stroke-miterlimit:10;stroke-width:0.5;" transform="matrix(-9e-08 0.0659 -0.0659 -9e-08 127.835 8.7323)">
  <path d="m339.2 260.2v5.7"/>
</g>
<g style="opacity .55 stroke:#000;stroke-miterlimit:10;stroke-width:0.5;" transform="matrix(-9e-08 0.0659 -0.0659 -9e-08 127.835 8.7323)">
  <path d="m369.6 260.2v5.7"/>
</g>
<g style="opacity .55 stroke:#000;stroke-miterlimit:10;stroke-width:0.5;" transform="matrix(-9e-08 0.0659 -0.0659 -9e-08 127.835 8.7323)">
  <path d="m400 260.2v5.7"/>
</g>
<g style="opacity .55 stroke:#000;stroke-miterlimit:10;stroke-width:0.5;" transform="matrix(-9e-08 0.0659 -0.0659 -9e-08 127.835 8.7323)">
  <path d="m430.4 260.2v5.7"/>
</g>
<g style="opacity .55 stroke:#000;stroke-miterlimit:10;stroke-width:0.5;" transform="matrix(-9e-08 0.0659 -0.0659 -9e-08 127.835 8.7323)">
  <path d="m460.8 260.2v5.7"/>
</g>
<g style="opacity .55 stroke:#000;stroke-miterlimit:10;stroke-width:0.5;" transform="matrix(-9e-08 0.0659 -0.0659 -9e-08 127.835 8.7323)">
  <path d="m491.2 260.2v5.7"/>
</g>
<g style="opacity .55 stroke:#000;stroke-miterlimit:10;stroke-width:0.5;" transform="matrix(-9e-08 0.0659 -0.0659 -9e-08 127.835 8.7323)">
  <path d="m521.6 260.2v5.7"/>
</g>
<g style="" transform="matrix(-9e-08 0.0659 -0.0659 -9e-08 127.835 8.7323)">
  <path d="m500.4 269.2h20.2v17.8h-20.2z"/>
</g>
</g>
<g style="font-family:'SabonNextLTPro-ExtraBold';font-size:10;opacity .55 " transform="translate(500.401,276.703)">
  <text x="0" y="0">19</text>
</g>
<g style="fill:none;" transform="translate(500.401,276.703)">
  <path d="m470.2 269.2h20.2v17.8h-20.2z"/>
</g>
<g style="font-family:'SabonNextLTPro-ExtraBold';font-size:10;opacity .55 " transform="translate(470.217,276.703)">
  <text x="0" y="0">18</text>
</g>
<g style="fill:none;" transform="translate(470.217,276.703)">
  <path d="m440 269.2h20.2v17.8h-20.2z"/>
</g>
<g style="font-family:'SabonNextLTPro-ExtraBold';font-size:10;opacity .55 " transform="translate(440.034,276.703)">
  <text x="0" y="0">17</text>
</g>
<g style="fill:none;" transform="translate(440.034,276.703)">
  <path d="m409.9 269.2h20.2v17.8h-20.2z"/>
</g>
<g style="font-family:'SabonNextLTPro-ExtraBold';font-size:10;opacity .55 " transform="translate(409.85,276.703)">
  <text x="0" y="0">16</text>
</g>
<g style="fill:none;" transform="translate(409.85,276.703)">
  <path d="m379.7 269.2h20.2v17.8h-20.2z"/>
</g>
<g style="font-family:'SabonNextLTPro-ExtraBold';font-size:10;opacity .55 " transform="translate(379.667,276.703)">
  <text x="0" y="0">15</text>
</g>
<g style="fill:none;" transform="translate(379.667,276.703)">
  <path d="m349.5 269.2h20.2v17.8h-20.2z"/>
</g>
<g style="font-family:'SabonNextLTPro-ExtraBold';font-size:10;opacity .55 " transform="translate(349.483,276.703)">
  <text x="0" y="0">14</text>
</g>
<g style="fill:none;" transform="translate(349.483,276.703)">
  <path d="m319.3 269.2h20.2v17.8h-20.2z"/>
</g>
<g style="font-family:'SabonNextLTPro-ExtraBold';font-size:10;opacity .55 " transform="translate(319.299,276.703)">
  <text x="0" y="0">13</text>
</g>
<g style="fill:none;" transform="translate(319.299,276.703)">
  <path d="m289.1 269.2h20.2v17.8h-20.2z"/>
</g>
<g style="font-family:'SabonNextLTPro-ExtraBold';font-size:10;opacity .55 " transform="translate(289.116,276.703)">
  <text x="0" y="0">12</text>
</g>
<g style="fill:none;" transform="translate(289.116,276.703)">
  <path d="m258.9 269.2h20.2v17.8h-20.2z"/>
</g>
<g style="font-family:'SabonNextLTPro-ExtraBold';font-size:10;opacity .55 " transform="translate(258.932,276.703)">
  <text x="0" y="0">11</text>
</g>
<g style="fill:none;" transform="translate(258.932,276.703)">
  <path d="m228.8 269.2h20.2v17.8h-20.2z"/>
</g>
<g style="font-family:'SabonNextLTPro-ExtraBold';font-size:10;opacity .55 " transform="translate(228.749,276.703)">
  <text x="0" y="0">10</text>
</g>
<g style="fill:none;" transform="translate(228.749,276.703)">
  <path d="m198.6 269.2h20.2v17.8h-20.2z"/>
</g>
<g style="font-family:'SabonNextLTPro-ExtraBold';font-size:10;opacity .55 " transform="translate(198.565,276.703)">
  <text x="0" y="0">09</text>
</g>
<g style="fill:none;" transform="translate(198.565,276.703)">
  <path d="m168.4 269.2h20.2v17.8h-20.2z"/>
</g>
<g style="font-family:'SabonNextLTPro-ExtraBold';font-size:10;opacity .55 " transform="translate(168.381,276.703)">
  <text x="0" y="0">08</text>
</g>
<g style="opacity .6 fill:none;stroke:#000;stroke-width:5;stroke-linecap:round;stroke-miterlimit:10;" transform="translate(168.381,276.703)">
  <path d="m384.2 198.7h-60.7"/>
</g>
<g style="opacity .6 fill:none;stroke:#000;stroke-width:5;stroke-linecap:round;stroke-miterlimit:10;" transform="translate(168.381,276.703)">
  <path d="m321.5 63.5h-25.2"/>
</g>
<g style="fill:none;stroke:#e3a15d;stroke-linecap:round;stroke-miterlimit:10;stroke-width:5;" transform="translate(168.381,276.703)">
  <path d="m429.8 73.6h-10"/>
</g>
<g style="fill:none;stroke:#e3a15d;stroke-linecap:round;stroke-miterlimit:10;stroke-width:5;" transform="translate(168.381,276.703)">
  <path d="m460.2 99.7h-11.9"/>
</g>
<g style="fill:none;stroke:#e3a15d;stroke-linecap:round;stroke-miterlimit:10;stroke-width:5;" transform="translate(168.381,276.703)">
  <path d="m472.9 82.4h-11.9"/>
</g>
<g style="fill:none;stroke:#e3a15d;stroke-linecap:round;stroke-miterlimit:10;stroke-width:5;" transform="translate(168.381,276.703)">
  <path d="m490.8 45.5h-9.8"/>
</g>
<g style="opacity .6 fill:none;stroke:#000;stroke-width:5;stroke-linecap:round;stroke-miterlimit:10;" transform="translate(168.381,276.703)">
  <path d="m259.5 63.5h-102.7"/>
</g>
<g style="fill:none;stroke:#e3a15d;stroke-linecap:round;stroke-miterlimit:10;stroke-width:5;" transform="translate(168.381,276.703)">
  <path d="m503.9 158.2h-13.5"/>
</g>
<g style="opacity .54 " transform="translate(168.381,276.703)">
<g style="fill:none;stroke:#000;stroke-miterlimit:10;stroke-width:0.25;" transform="translate(168.381,276.703)">
<g style="" transform="translate(168.381,276.703)">
  <path d="m71.4 69.4.8 1.3"/>
</g>
<g style="stroke-dasharray:2.5414 2.5414 ;" transform="translate(168.381,276.703)">
  <path d="m73.5 72.9 4.6 7.6"/>
</g>
<g style="" transform="translate(168.381,276.703)">
  <path d="m78.8 81.6.7 1.3"/>
</g>
</g>
<g style="" transform="translate(168.381,276.703)">
  <path d="m69.9 70.4c-.5-.9-.2-2.1.6-2.6s2.1-.2 2.6.6.2 2.1-.6 2.6-2.1.3-2.6-.6z"/>
</g>
</g>
<g style="opacity .6 fill:none;stroke:#000;stroke-width:5;stroke-linecap:round;stroke-miterlimit:10;" transform="translate(168.381,276.703)">
  <path d="m418.3 63.5h-6.4"/>
</g>
<g style="fill:none;opacity .54 stroke:#000;stroke-miterlimit:10;stroke-width:0.25;" transform="translate(168.381,276.703)">
<g style="" transform="translate(168.381,276.703)">
  <path d="m132.9 73.2h1.5"/>
</g>
<g style="stroke-dasharray:3.0277 3.0277 ;" transform="translate(168.381,276.703)">
  <path d="m137.5 73.2h277"/>
</g>
<g style="" transform="translate(168.381,276.703)">
  <path d="m416 73.2h1.5"/>
</g>
</g>
<g style="opacity .54 " transform="translate(168.381,276.703)">
<g style="fill:none;stroke:#000;stroke-miterlimit:10;stroke-width:0.25;" transform="translate(168.381,276.703)">
<g style="" transform="translate(168.381,276.703)">
  <path d="m119.2 61.4 1.1.9"/>
</g>
<g style="stroke-dasharray:2.9061 2.9061 ;" transform="translate(168.381,276.703)">
  <path d="m122.6 64.1 8 6.3"/>
</g>
<g style="" transform="translate(168.381,276.703)">
  <path d="m131.8 71.3 1.1.9"/>
</g>
</g>
<g style="" transform="translate(168.381,276.703)">
  <path d="m118.1 62.9c-.8-.6-1-1.8-.3-2.6s1.8-1 2.6-.3 1 1.8.3 2.6-1.8 1-2.6.3z"/>
</g>
</g>
<g style="fill:none;stroke:#e3a15d;stroke-linecap:round;stroke-miterlimit:10;stroke-width:5;" transform="translate(168.381,276.703)">
  <path d="m440.8 229.6h-10"/>
</g>
<g style="fill:none;stroke:#726d6e;stroke-linecap:round;stroke-miterlimit:10;stroke-width:5;" transform="translate(168.381,276.703)">
  <path d="m448.3 184.5h-6.4"/>
</g>
<g style="opacity .6 fill:none;stroke:#000;stroke-width:5;stroke-linecap:round;stroke-miterlimit:10;" transform="translate(168.381,276.703)">
  <path d="m478 51.5h-4.1"/>
</g>
<g style="fill:none;opacity .54 stroke:#000;stroke-miterlimit:10;stroke-width:0.25;" transform="translate(168.381,276.703)">
<g style="" transform="translate(168.381,276.703)">
  <path d="m132.9 52.2h1.5"/>
</g>
<g style="stroke-dasharray:3.0196 3.0196 ;" transform="translate(168.381,276.703)">
  <path d="m137.5 52.2 330.6-.7"/>
</g>
<g style="" transform="translate(168.381,276.703)">
  <path d="m469.6 51.5h1.5"/>
</g>
</g>
<g style="opacity .54 " transform="translate(168.381,276.703)">
<g style="fill:none;stroke:#000;stroke-miterlimit:10;stroke-width:0.25;" transform="translate(168.381,276.703)">
<g style="" transform="translate(168.381,276.703)">
  <path d="m124.3 57.9 1.3-.8"/>
</g>
<g style="stroke-dasharray:2.4406 2.4406 ;" transform="translate(168.381,276.703)">
  <path d="m127.6 55.7 3.1-2"/>
</g>
<g style="" transform="translate(168.381,276.703)">
  <path d="m131.7 53.1 1.2-.9"/>
</g>
</g>
<g style="" transform="translate(168.381,276.703)">
  <path d="m125.4 59.4c-.9.6-2 .3-2.6-.5-.6-.9-.3-2 .5-2.6s2-.3 2.6.5c.6.9.4 2-.5 2.6z"/>
</g>
</g>
<g style="fill:none;stroke:#726d6e;stroke-linecap:round;stroke-miterlimit:10;stroke-width:5;" transform="translate(168.381,276.703)">
  <path d="m511.3 184.5h-6.4"/>
</g>
<g style="opacity .6 fill:none;stroke:#000;stroke-width:5;stroke-linecap:round;stroke-miterlimit:10;" transform="translate(168.381,276.703)">
  <path d="m293.5 57.5h-30.3"/>
</g>
<g style="fill:none;opacity .54 stroke:#000;stroke-miterlimit:10;stroke-width:0.25;" transform="translate(168.381,276.703)">
<g style="" transform="translate(168.381,276.703)">
  <path d="m323.6 63.5h1.5"/>
</g>
<g style="stroke-dasharray:3.0662 3.0662 ;" transform="translate(168.381,276.703)">
  <path d="m328.2 63.5h78.2"/>
</g>
<g style="" transform="translate(168.381,276.703)">
  <path d="m407.9 63.5h1.5"/>
</g>
</g>
<g style="fill:none;" transform="translate(168.381,276.703)">
  <path d="m320.2 204.2h66.6v11.3h-66.6z"/>
</g>
<g style="font-family:'SabonLTStd-Roman';font-size:6;opacity .6 " transform="translate(331.132,208.801)">
  <text x="0" y="0">UWC Costa Rica</text>
</g>
<g style="fill:none;" transform="translate(331.132,208.801)">
  <path d="m403.2 234.2h66.6v11.3h-66.6z"/>
</g>
<g style="font-family:'SabonLTStd-Roman';font-size:6;opacity .6 " transform="translate(432.128,238.801)">
  <text x="0" y="0">4th</text>
</g>
<g style="fill:none;" transform="translate(432.128,238.801)">
  <path d="m412.2 189.2h66.6v11.3h-66.6z"/>
</g>
<g style="font-family:'SabonLTStd-Roman';font-size:6;opacity .6 " transform="translate(434.97,193.801)">
  <text x="0" y="0">Amplify</text>
</g>
<g style="fill:none;" transform="translate(434.97,193.801)">
  <path d="m475.2 189.2h66.6v11.3h-66.6z"/>
</g>
<g style="font-family:'SabonLTStd-Roman';font-size:6;opacity .6 " transform="translate(488.802,193.801)">
  <text x="0" y="0">Recurse Center</text>
</g>
<g style="fill:none;" transform="translate(488.802,193.801)">
  <path d="m465.2 163.2h66.6v11.3h-66.6z"/>
</g>
<g style="font-family:'SabonLTStd-Roman';font-size:6;opacity .6 " transform="translate(494.128,167.801)">
  <text x="0" y="0">8th</text>
</g>
<g style="fill:none;" transform="translate(494.128,167.801)">
  <path d="m365.2 163.2h66.6v11.3h-66.6z"/>
</g>
<g style="font-family:'SabonLTStd-Roman';font-size:6;opacity .6 " transform="translate(385.125,167.801)">
  <text x="0" y="0">1st &amp; 2nd semester at Minerva</text>
</g>
<g style="fill:none;" transform="translate(385.125,167.801)">
  <path d="m421.2 105.2h66.6v11.3h-66.6z"/>
</g>
<g style="font-family:'SabonLTStd-Roman';font-size:6;opacity .6 " transform="translate(450.128,109.801)">
  <text x="0" y="0">5th</text>
</g>
<g style="fill:none;" transform="translate(450.128,109.801)">
  <path d="m433.2 87.2h66.6v11.3h-66.6z"/>
</g>
<g style="font-family:'SabonLTStd-Roman';font-size:6;opacity .6 " transform="translate(462.128,91.8007)">
  <text x="0" y="0">6th</text>
</g>
<g style="fill:none;" transform="translate(462.128,91.8007)">
  <path d="m392.2 77.2h66.6v11.3h-66.6z"/>
</g>
<g style="font-family:'SabonLTStd-Roman';font-size:6;opacity .6 " transform="translate(420.961,81.8007)">
  <text x="0" y="0">3rd</text>
</g>
<g style="fill:none;" transform="translate(420.961,81.8007)">
  <path d="m244.2 61.2h66.6v11.3h-66.6z"/>
</g>
<g style="font-family:'SabonLTStd-Roman';font-size:6;opacity .6 " transform="translate(272.799,65.8007)">
  <text x="0" y="0">ØU</text>
</g>
<g style="fill:none;" transform="translate(272.799,65.8007)">
  <path d="m266.2 67.2h85.6v11.3h-85.6z"/>
</g>
<g style="font-family:'SabonLTStd-Roman';font-size:6;opacity .6 " transform="translate(293.468,71.8007)">
  <text x="0" y="0">High School</text>
</g>
<g style="fill:none;stroke:#e3a15d;stroke-linecap:round;stroke-miterlimit:10;stroke-width:5;" transform="translate(293.468,71.8007)">
  <path d="m411.8 158.2h-27.6"/>
</g>
<g style="fill:none;" transform="translate(293.468,71.8007)">
  <path d="m453.2 36.2h66.6v11.3h-66.6z"/>
</g>
<g style="font-family:'SabonLTStd-Roman';font-size:6;opacity .6 " transform="translate(482.128,40.8007)">
  <text x="0" y="0">7th</text>
</g>
<g style="fill:none;" transform="translate(482.128,40.8007)">
  <path d="m443.2 56.2h66.6v11.3h-66.6z"/>
</g>
<g style="font-family:'SabonLTStd-Roman';font-size:6;opacity .6 " transform="translate(464.962,60.8007)">
  <text x="0" y="0">DC Labs</text>
</g>
<g style="fill:none;" transform="translate(464.962,60.8007)">
  <path d="m165.2 67.2h85.6v11.3h-85.6z"/>
</g>
<g style="font-family:'SabonLTStd-Roman';font-size:6;opacity .6 " transform="translate(197.468,71.8007)">
  <text x="0" y="0">Aalborg</text>
</g>
<g style="fill:none;" transform="translate(197.468,71.8007)">
  <path d="m369.2 67.2h85.6v11.3h-85.6z"/>
</g>
<g style="font-family:'SabonLTStd-Roman';font-size:6;opacity .6 " transform="translate(406.307,71.8007)">
  <text x="0" y="0">HIA</text>
</g>
</g>
</svg>
